<svg width="103" height="103" viewBox="0 0 103 103" fill="none" xmlns="http://www.w3.org/2000/svg">
<path d="M91.7429 83.3245C98.7148 74.4642 104.477 60.7121 102.662 49.1506C102.089 36.2771 96.8202 24.2554 87.6739 15.0839C77.9737 5.35681 65.0767 0 51.3585 0C43.2433 0 35.4762 1.84628 28.2733 5.48683C27.2839 5.98721 26.8855 7.19679 27.3845 8.18888C27.8835 9.18096 29.0897 9.57969 30.0791 9.0801C31.6641 8.27871 33.2806 7.57424 34.9229 6.96275L30.0296 22.0632H14.2125C15.2773 20.7165 16.4175 19.4186 17.6371 18.1783C18.4151 17.3864 18.4056 16.113 17.6167 15.3329C16.8277 14.5535 15.557 14.5622 14.7798 15.3534C5.3507 24.9464 0 38.0319 0 51.5004C0 79.5839 23.3673 103 51.3585 103C66.0299 103 83.3833 96.0633 91.7429 83.3245ZM83.1578 59.7452L70.1217 55.4987L64.195 37.2053L72.2513 26.0859H91.3327C95.4929 32.6436 98.0916 40.288 98.6063 48.491L83.1578 59.7452ZM51.3585 67.1185L36.5449 56.3261L42.2028 38.8641H60.5134L66.1713 56.3261L51.3585 67.1185ZM98.6621 53.4239C98.303 62.4165 95.4387 70.7725 90.7496 77.8093L85.8689 62.7443L98.6621 53.4239ZM88.4778 22.0632H72.6866L67.7988 6.97693C76.0005 10.032 83.135 15.3037 88.4778 22.0632ZM51.3585 4.02352C55.4102 4.02352 59.3449 4.53729 63.1019 5.50259L69.005 23.7211L60.9487 34.8413H41.7675L33.7112 23.7219L39.6182 5.49235C43.4185 4.51838 47.3414 4.02352 51.3585 4.02352ZM30.4649 26.0859L38.5212 37.2053L32.5945 55.4987L19.5584 59.746L4.10909 48.4902C4.60887 40.4519 7.10388 32.7878 11.3552 26.0859H30.4649ZM4.05487 53.4239L16.8481 62.7443L11.9666 77.8093C7.27754 70.7725 4.41399 62.4165 4.05487 53.4239ZM14.9048 81.7619L20.7985 63.5725L33.8346 59.3252L49.3523 70.6306V84.3749L33.9014 95.6314C26.4588 92.6607 19.9396 87.85 14.9048 81.7619ZM38.5582 97.2122L51.3585 87.8862L64.1588 97.2122C60.0851 98.3611 55.7921 98.9765 51.3585 98.9765C46.9241 98.9765 42.6311 98.3611 38.5582 97.2122ZM68.8149 95.6314L53.3647 84.3749V70.6306L68.8824 59.3252L81.9177 63.5717L87.8114 81.7619C82.7766 87.85 76.2574 92.6607 68.8149 95.6314Z" fill="#FF7B31"/>
</svg>
